<?xml version="1.0" encoding="UTF-8"?>
<svg width="20px" height="20px" viewBox="0 0 20 20" version="1.1" xmlns="http://www.w3.org/2000/svg" xmlns:xlink="http://www.w3.org/1999/xlink">
    <!-- Generator: Sketch 52.4 (67378) - http://www.bohemiancoding.com/sketch -->
    <title>关闭</title>
    <desc>Created with Sketch.</desc>
    <g id="Symbols" stroke="none" stroke-width="1" fill="none" fill-rule="evenodd">
        <g id="close_icon" transform="translate(-2.000000, -2.000000)">
            <g id="关闭">
                <rect id="Rectangle" fill="#000000" opacity="0" x="0" y="0" width="24" height="24"></rect>
                <path d="M13.5480469,12 L21.28875,4.25953125 C21.5724634,3.98446887 21.6859249,3.57785804 21.5856206,3.19563866 C21.4853162,2.81341927 21.1868151,2.51491813 20.8045957,2.41461382 C20.4223763,2.31430952 20.0157655,2.42777096 19.7407031,2.71148438 L12,10.453125 L4.25953125,2.71125 C3.83017594,2.29498667 3.14623514,2.30028078 2.72337515,2.72314077 C2.30051516,3.14600076 2.29522104,3.82994157 2.71148437,4.25929687 L10.4519531,12 L2.71125,19.7407031 C2.29498667,20.1700584 2.30028078,20.8539992 2.72314077,21.2768592 C3.14600076,21.6997192 3.82994157,21.7050133 4.25929688,21.28875 L12,13.5482812 L19.7404688,21.2889844 C20.1698241,21.7052477 20.8537649,21.6999536 21.2766249,21.2770936 C21.6994848,20.8542336 21.704779,20.1702928 21.2885156,19.7409375 L13.5480469,12 Z" id="Path" fill="#666666"></path>
            </g>
        </g>
    </g>
</svg>