<?xml version="1.0" encoding="UTF-8"?>
<svg width="32px" height="32px" viewBox="0 0 32 32" version="1.1" xmlns="http://www.w3.org/2000/svg" xmlns:xlink="http://www.w3.org/1999/xlink">
    <!-- Generator: Sketch 52.4 (67378) - http://www.bohemiancoding.com/sketch -->
    <title>look_icon</title>
    <desc>Created with Sketch.</desc>
    <g id="look_icon" stroke="none" stroke-width="1" fill="none" fill-rule="evenodd">
        <g id="浏览">
            <rect id="Rectangle" fill="#000000" opacity="0" x="0" y="0" width="32" height="32"></rect>
            <path d="M28.8569063,15.6852187 C27.8822187,13.0835313 26.160375,10.8610625 23.8848125,9.25678125 C21.552375,7.61459375 18.8103125,6.74228125 15.9469063,6.74228125 C13.0835,6.74228125 10.3414688,7.61078125 8.009,9.25678125 C5.729625,10.8648437 4.01159375,13.0872813 3.03690625,15.6852187 L2.91553125,16.0037812 L3.03690625,16.3223437 C4.01159375,18.9240312 5.7334375,21.1465 8.009,22.7507812 C10.3414375,24.3929687 13.0835,25.2652813 15.9469063,25.2652813 C18.8103125,25.2652813 21.5523438,24.3967812 23.8848125,22.7507813 C26.1641875,21.1427188 27.8822188,18.9202813 28.8569063,16.3223438 L28.9782813,16.0037813 L28.8569063,15.6852187 Z M15.9469063,23.448625 C11.0999688,23.448625 6.69296875,20.4714687 4.8649375,16.0075625 C6.68915625,11.5399062 11.0999688,8.5665 15.9469063,8.5665 C20.7938438,8.5665 25.2008437,11.5436562 27.028875,16.0075625 C25.2008438,20.4714687 20.7900313,23.448625 15.9469063,23.448625 Z" id="Shape" fill="#9B9B9B" fill-rule="nonzero"></path>
            <path d="M15.9469063,11.1871875 C13.2920625,11.1871875 11.1303125,13.3489688 11.1303125,16.0037812 C11.1303125,18.6585937 13.2920938,20.820375 15.9469062,20.820375 C18.6017187,20.820375 20.7635,18.6585937 20.7635,16.0037812 C20.7635,13.3489688 18.6017187,11.1871875 15.9469062,11.1871875 Z M15.9469063,18.9999375 C14.2933438,18.9999375 12.95075,17.657375 12.95075,16.0037813 C12.95075,14.3501875 14.2933125,13.007625 15.9469063,13.007625 C17.6005,13.007625 18.9430625,14.3501875 18.9430625,16.0037813 C18.9430625,17.657375 17.5966875,18.9999375 15.9469063,18.9999375 Z" id="Shape" fill="#9B9B9B" fill-rule="nonzero"></path>
        </g>
    </g>
</svg>