<?xml version="1.0" encoding="UTF-8"?>
<svg width="28px" height="24px" viewBox="0 0 28 24" version="1.1" xmlns="http://www.w3.org/2000/svg" xmlns:xlink="http://www.w3.org/1999/xlink">
    <!-- Generator: Sketch 52.4 (67378) - http://www.bohemiancoding.com/sketch -->
    <title>微信</title>
    <desc>Created with Sketch.</desc>
    <g id="0114" stroke="none" stroke-width="1" fill="none" fill-rule="evenodd">
        <g id="用户界面-授权登录" transform="translate(-276.000000, -1209.000000)" fill-rule="nonzero">
            <g id="Group" transform="translate(30.000000, 1170.000000)">
                <g id="分组" transform="translate(244.000000, 32.000000)">
                    <g id="微信" transform="translate(0.000000, 3.000000)">
                        <rect id="Rectangle-path" fill="#000000" opacity="0" x="0" y="0" width="32" height="32"></rect>
                        <path d="M20.95625,11.496875 C21.278125,11.496875 21.59375,11.521875 21.909375,11.55625 C21.053125,7.5625 16.784375,4.596875 11.909375,4.596875 C6.4625,4.596875 2,8.309375 2,13.025 C2,15.746875 3.484375,17.98125 5.965625,19.715625 L4.975,22.696875 L8.4375,20.959375 C9.678125,21.20625 10.671875,21.45625 11.909375,21.45625 C12.21875,21.45625 12.528125,21.440625 12.834375,21.415625 C12.640625,20.753125 12.528125,20.059375 12.528125,19.340625 C12.53125,15.009375 16.246875,11.496875 20.95625,11.496875 Z M15.628125,8.809375 C16.375,8.809375 16.86875,9.3 16.86875,10.046875 C16.86875,10.790625 16.375,11.2875 15.628125,11.2875 C14.884375,11.2875 14.140625,10.790625 14.140625,10.046875 C14.1375,9.3 14.884375,8.809375 15.628125,8.809375 Z M8.690625,11.2875 C7.946875,11.2875 7.196875,10.790625 7.196875,10.046875 C7.196875,9.3 7.946875,8.809375 8.690625,8.809375 C9.434375,8.809375 9.928125,9.3 9.928125,10.046875 C9.928125,10.790625 9.434375,11.2875 8.690625,11.2875 Z" id="Shape" fill="#FFFFFF"></path>
                        <path d="M30,19.221875 C30,15.259375 26.034375,12.03125 21.58125,12.03125 C16.865625,12.03125 13.153125,15.259375 13.153125,19.221875 C13.153125,23.190625 16.865625,26.4125 21.58125,26.4125 C22.56875,26.4125 23.565625,26.1625 24.55625,25.915625 L27.275,27.403125 L26.53125,24.928125 C28.51875,23.434375 30,21.45625 30,19.221875 Z M18.85,17.98125 C18.35625,17.98125 17.859375,17.490625 17.859375,16.990625 C17.859375,16.496875 18.35625,16 18.85,16 C19.6,16 20.090625,16.496875 20.090625,16.990625 C20.090625,17.490625 19.6,17.98125 18.85,17.98125 Z M24.3,17.98125 C23.809375,17.98125 23.315625,17.490625 23.315625,16.990625 C23.315625,16.496875 23.809375,16 24.3,16 C25.04375,16 25.540625,16.496875 25.540625,16.990625 C25.540625,17.490625 25.04375,17.98125 24.3,17.98125 Z" id="Shape" fill="#FFFFFF"></path>
                    </g>
                </g>
            </g>
        </g>
    </g>
</svg>